<svg version="1.1" viewBox="0.0 0.0 481.4724409448819 452.29133858267716" fill="none" stroke="none" stroke-linecap="square" stroke-miterlimit="10" xmlns:xlink="http://www.w3.org/1999/xlink" xmlns="http://www.w3.org/2000/svg"><clipPath id="p.0"><path d="m0 0l481.47244 0l0 452.29135l-481.47244 0l0 -452.29135z" clip-rule="nonzero"/></clipPath><g clip-path="url(#p.0)"><path fill="#000000" fill-opacity="0.0" d="m0 0l481.47244 0l0 452.29135l-481.47244 0z" fill-rule="evenodd"/><path fill="#ffffff" d="m57.09716 41.58657l367.27557 0.03149414l0 68.0l-367.27557 -0.03149414z" fill-rule="evenodd"/><path stroke="#ffffff" stroke-width="2.52755905511811" stroke-linejoin="round" stroke-linecap="butt" d="m57.09716 41.58657l367.27557 0.03149414l0 68.0l-367.27557 -0.03149414z" fill-rule="evenodd"/><path fill="#ffffff" d="m57.09716 192.1312l367.27557 0.03149414l0 68.0l-367.27557 -0.03149414z" fill-rule="evenodd"/><path stroke="#ffffff" stroke-width="2.52755905511811" stroke-linejoin="round" stroke-linecap="butt" d="m57.09716 192.1312l367.27557 0.03149414l0 68.0l-367.27557 -0.03149414z" fill-rule="evenodd"/><path fill="#ffffff" d="m57.09716 342.6745l367.27557 0.03149414l0 68.0l-367.27557 -0.03149414z" fill-rule="evenodd"/><path stroke="#ffffff" stroke-width="2.52755905511811" stroke-linejoin="round" stroke-linecap="butt" d="m57.09716 342.6745l367.27557 0.03149414l0 68.0l-367.27557 -0.03149414z" fill-rule="evenodd"/></g></svg>